<svg width="90" height="20" viewBox="0 0 90 20" fill="none" xmlns="http://www.w3.org/2000/svg">
<path fill-rule="evenodd" clip-rule="evenodd" d="M28.105 3.14618C27.7763 1.92303 26.8036 0.958235 25.5662 0.627545C23.3288 0.0340576 14.3516 0.0340576 14.3516 0.0340576C14.3516 0.0340576 5.37904 0.0340576 3.13702 0.627545C1.9042 0.95367 0.931571 1.91858 0.598235 3.14618C-5.62644e-08 5.36584 0 9.99996 0 9.99996C0 9.99996 -5.62644e-08 14.6342 0.598235 16.8539C0.926969 18.077 1.8996 19.0418 3.13702 19.3725C5.37904 19.966 14.3516 19.966 14.3516 19.966C14.3516 19.966 23.3288 19.966 25.5662 19.3725C26.7991 19.0464 27.7717 18.0814 28.105 16.8539C28.7032 14.6342 28.7032 10.0001 28.7032 10.0001C28.7032 10.0001 28.7032 5.36584 28.105 3.14618V3.14618Z" fill="#FF0000"/>
<path fill-rule="evenodd" clip-rule="evenodd" d="M11.4841 14.2718L18.9407 9.99994L11.4841 5.72824V14.2718Z" fill="white"/>
<path fill-rule="evenodd" clip-rule="evenodd" d="M41.6621 18.1675C41.0959 17.7871 40.6895 17.1981 40.4521 16.3964C40.2146 15.5945 40.0913 14.53 40.0913 13.1981V11.3862C40.0913 10.0408 40.2282 8.96271 40.5022 8.14717C40.7762 7.33185 41.2055 6.73848 41.7853 6.36694C42.3653 5.99551 43.1279 5.80529 44.073 5.80529C45.0046 5.80529 45.7489 5.99551 46.3104 6.37607C46.8721 6.75651 47.283 7.35 47.5433 8.1563C47.8036 8.96271 47.9316 10.0408 47.9316 11.3816V13.1937C47.9316 14.5255 47.8036 15.5945 47.5524 16.4008C47.3013 17.2071 46.8905 17.8006 46.3196 18.1721C45.7534 18.5435 44.9817 18.7339 44.009 18.7339C43.0136 18.7383 42.2283 18.5481 41.6621 18.1675V18.1675ZM44.8447 16.2106C45 15.8029 45.0822 15.137 45.0822 14.2175V10.3262C45.0822 9.42919 45.0046 8.77694 44.8447 8.36021C44.6895 7.94793 44.4109 7.73957 44.0136 7.73957C43.6302 7.73957 43.3607 7.94793 43.2009 8.36021C43.0456 8.77238 42.9635 9.42919 42.9635 10.3262V14.2175C42.9635 15.1415 43.0365 15.8075 43.1872 16.2106C43.3379 16.6183 43.6119 16.8221 44.0092 16.8221C44.4109 16.8221 44.6849 16.6183 44.8447 16.2106V16.2106ZM85.2556 13.2298V13.8596C85.2556 14.6614 85.2785 15.2593 85.3288 15.6624C85.3743 16.0611 85.4749 16.3555 85.6255 16.5369C85.7762 16.718 86.009 16.8131 86.3241 16.8131C86.7488 16.8131 87.041 16.6501 87.1963 16.3238C87.3516 15.9977 87.4382 15.4541 87.452 14.6931L89.8948 14.8336C89.9086 14.9422 89.9131 15.0917 89.9131 15.2819C89.9131 16.4371 89.5935 17.2978 88.9588 17.8685C88.3241 18.4393 87.4246 18.7247 86.2602 18.7247C84.8629 18.7247 83.8858 18.2898 83.3242 17.4201C82.7625 16.5503 82.484 15.2094 82.484 13.3885V11.2095C82.484 9.33414 82.7762 7.97053 83.356 7.10546C83.936 6.24473 84.9314 5.81431 86.3425 5.81431C87.315 5.81431 88.0593 5.99106 88.5798 6.34435C89.1004 6.69763 89.4657 7.2457 89.6803 7.99323C89.8904 8.74065 90 9.77358 90 11.0872V13.2254H85.2556V13.2298ZM85.6163 7.97509C85.4747 8.15185 85.3789 8.44169 85.3287 8.84039C85.2784 9.23897 85.2556 9.8506 85.2556 10.6614V11.5584H87.3287V10.6614C87.3287 9.8595 87.3013 9.25255 87.2464 8.84039C87.1917 8.42811 87.0913 8.1337 86.9497 7.96608C86.8081 7.79845 86.5844 7.71241 86.283 7.71241C85.9816 7.70785 85.7579 7.79845 85.6163 7.97509ZM34.7671 12.9943L31.5435 1.44744H34.3561L35.484 6.6796C35.7717 7.97064 35.9817 9.0669 36.1187 9.97738H36.2008C36.2968 9.32501 36.5068 8.23332 36.8357 6.69763L38.0045 1.44287H40.8173L37.5571 12.9943V18.5345H34.7671V12.9943ZM57.0776 6.04994V18.5299H54.8629L54.6163 17.0033H54.557C53.9543 18.1585 53.0502 18.7338 51.8492 18.7338C51.0137 18.7338 50.3972 18.462 50 17.9184C49.6027 17.3748 49.4064 16.5277 49.4064 15.3726V6.04994H52.2374V15.214C52.2374 15.7712 52.2968 16.1699 52.4201 16.4054C52.5434 16.6409 52.7488 16.7633 53.0365 16.7633C53.2831 16.7633 53.5205 16.6907 53.7442 16.5413C53.9679 16.3918 54.1369 16.2015 54.2465 15.9705V6.04983L57.0776 6.04994ZM71.6073 6.04994V18.5299H69.3926L69.146 17.0033H69.0866C68.4839 18.1585 67.5798 18.7338 66.3789 18.7338C65.5434 18.7338 64.9268 18.462 64.5297 17.9184C64.1324 17.3748 63.936 16.5277 63.936 15.3726V6.04994H66.7671V15.214C66.7671 15.7712 66.8265 16.1699 66.9498 16.4054C67.0729 16.6409 67.2785 16.7633 67.5662 16.7633C67.8128 16.7633 68.0502 16.6907 68.2739 16.5413C68.4976 16.3918 68.6666 16.2015 68.7762 15.9705V6.04983L71.6073 6.04994Z" fill="white"/>
<path fill-rule="evenodd" clip-rule="evenodd" d="M64.7761 3.70796H61.9634V18.5299H59.1917V3.70796H56.3789V1.44755H64.7715V3.70796H64.7761ZM80.9816 8.04755C80.8081 7.2594 80.5341 6.68862 80.1505 6.33534C79.7671 5.98194 79.242 5.80529 78.5706 5.80529C78.0502 5.80529 77.5661 5.95021 77.1141 6.24473C76.662 6.53457 76.315 6.91969 76.0684 7.3953H76.0456V0.81778H73.315V18.5345H75.6528L75.9405 17.3522H75.9999C76.2191 17.7735 76.5478 18.1042 76.9861 18.3487C77.4245 18.5934 77.9086 18.7157 78.4428 18.7157C79.4017 18.7157 80.1049 18.2762 80.557 17.4019C81.009 16.5277 81.2328 15.1597 81.2328 13.2979V11.3227C81.2374 9.92751 81.1505 8.83582 80.9816 8.04767V8.04755ZM78.3834 13.1392C78.3834 14.0498 78.3469 14.761 78.2693 15.2774C78.1962 15.7939 78.0684 16.1608 77.8903 16.3783C77.7122 16.5956 77.4748 16.7044 77.1734 16.7044C76.9405 16.7044 76.726 16.6501 76.525 16.5413C76.3287 16.4326 76.1643 16.2695 76.041 16.052V8.96271C76.1369 8.62289 76.3013 8.34663 76.5342 8.12926C76.767 7.91176 77.0181 7.80302 77.2921 7.80302C77.5798 7.80302 77.8035 7.91621 77.9588 8.13815C78.1141 8.36021 78.2237 8.74065 78.2875 9.26613C78.347 9.79617 78.3788 10.5482 78.3788 11.5265V13.1392H78.3834Z" fill="white"/>
</svg>
